<svg width="28" height="28" viewBox="0 0 28 28" fill="none" xmlns="http://www.w3.org/2000/svg">
<path d="M20.4688 5.49609L5.84375 13.9336C4.61328 14.6367 4.71875 16.4297 6.01953 16.957L10.0625 18.6094V21.5625C10.0625 23.2148 12.1367 23.8828 13.0859 22.582L14.6328 20.5078L18.5703 22.125C18.7812 22.2305 18.9922 22.2656 19.2031 22.2656C19.4844 22.2656 19.7656 22.1953 20.0469 22.0547C20.5039 21.7734 20.7852 21.3516 20.8906 20.8242L22.9648 7.21875C23.1758 5.8125 21.6641 4.79297 20.4688 5.49609ZM11.75 21.5625V19.3125L13.0156 19.8398L11.75 21.5625ZM19.2031 20.5781L13.7891 18.3281L18.7461 11.2266C19.0977 10.6641 18.3945 10.0312 17.9023 10.4883L10.4492 16.957L6.6875 15.375L21.3125 6.9375L19.2031 20.5781Z" fill="black"/>
</svg>
