<svg width="16" height="17" viewBox="0 0 16 17" fill="none" xmlns="http://www.w3.org/2000/svg">
<path d="M14.537 6.86344H14V6.83577H7.99998V9.50244H11.7676C11.218 11.0548 9.74098 12.1691 7.99998 12.1691C5.79098 12.1691 3.99998 10.3781 3.99998 8.16911C3.99998 5.96011 5.79098 4.16911 7.99998 4.16911C9.01965 4.16911 9.94731 4.55377 10.6536 5.18211L12.5393 3.29644C11.3486 2.18677 9.75598 1.50244 7.99998 1.50244C4.31831 1.50244 1.33331 4.48744 1.33331 8.16911C1.33331 11.8508 4.31831 14.8358 7.99998 14.8358C11.6816 14.8358 14.6666 11.8508 14.6666 8.16911C14.6666 7.72211 14.6206 7.28577 14.537 6.86344Z" fill="#FFC107"/>
<path d="M2.10199 5.06611L4.29232 6.67244C4.88499 5.20511 6.32032 4.16911 7.99999 4.16911C9.01966 4.16911 9.94732 4.55377 10.6537 5.18211L12.5393 3.29644C11.3487 2.18677 9.75599 1.50244 7.99999 1.50244C5.43932 1.50244 3.21866 2.94811 2.10199 5.06611Z" fill="#FF3D00"/>
<path d="M8 14.8357C9.722 14.8357 11.2867 14.1767 12.4697 13.1051L10.4063 11.3591C9.71452 11.8852 8.86915 12.1697 8 12.1691C6.266 12.1691 4.79367 11.0634 4.239 9.52039L2.065 11.1954C3.16834 13.3544 5.409 14.8357 8 14.8357Z" fill="#4CAF50"/>
<path d="M14.537 6.86336H14V6.83569H8V9.50236H11.7677C11.5047 10.2412 11.0311 10.8868 10.4053 11.3594L10.4063 11.3587L12.4697 13.1047C12.3237 13.2374 14.6667 11.5024 14.6667 8.16903C14.6667 7.72203 14.6207 7.28569 14.537 6.86336Z" fill="#1976D2"/>
</svg>
