<?xml version="1.0" encoding="utf-8"?><svg version="1.1" id="Layer_1" xmlns="http://www.w3.org/2000/svg" xmlns:xlink="http://www.w3.org/1999/xlink" x="0px" y="0px" viewBox="0 0 122.88 111.09" style="enable-background:new 0 0 122.88 111.09" xml:space="preserve"><style type="text/css">.st0{fill-rule:evenodd;clip-rule:evenodd;}</style><g><path class="st0" d="M36.25,39.13c-1.13,0.05-1.99,0.28-2.57,0.67c-0.33,0.22-0.58,0.51-0.74,0.85c-0.17,0.38-0.26,0.84-0.24,1.37 c0.05,1.55,0.85,3.58,2.43,5.92l0.02,0.04l0,0l5.11,8.1c2.05,3.25,4.19,6.57,6.86,9.01c2.56,2.34,5.67,3.92,9.78,3.94 c4.45,0.01,7.71-1.64,10.35-4.11c2.75-2.57,4.92-6.1,7.06-9.62l5.74-9.47c1.08-2.44,1.46-4.08,1.21-5.04 c-0.15-0.57-0.77-0.86-1.85-0.9c-0.23-0.01-0.46-0.02-0.7-0.01c-0.26,0.01-0.52,0.03-0.8,0.05c-0.16,0.02-0.3,0-0.44-0.03 c-0.51,0.03-1.04-0.01-1.57-0.08l1.97-8.71c-14.61,2.3-25.53-8.55-40.97-2.17l1.11,10.27C37.38,39.23,36.79,39.21,36.25,39.13 L36.25,39.13L36.25,39.13L36.25,39.13z M122.09,90.14c0.51,0.85,0.79,1.76,0.79,2.71c0,5-7.74,9.06-17.28,9.06 c-9.54,0-17.28-4.06-17.28-9.06c0-0.94,0.28-1.85,0.79-2.71c2.2,3.68,8.75,6.35,16.49,6.35C113.35,96.49,119.9,93.82,122.09,90.14 L122.09,90.14L122.09,90.14z M111.84,71.42l-0.2,2.25l-8.48-0.74c0.7,0.89,1.18,1.91,1.45,3.05l-2.04-0.18 c-0.14-0.6-0.45-1.27-0.92-2c-0.48-0.74-1.06-1.26-1.76-1.58l0.16-1.82L111.84,71.42L111.84,71.42L111.84,71.42L111.84,71.42z M105.6,67.9c7.84,0,14.2,2.5,14.2,5.57c0,3.08-6.36,5.57-14.2,5.57c-7.84,0-14.2-2.5-14.2-5.57C91.4,70.39,97.76,67.9,105.6,67.9 L105.6,67.9L105.6,67.9z M105.6,66.05c9.54,0,17.28,4.06,17.28,9.06c0,5-7.74,9.06-17.28,9.06c-9.54,0-17.28-4.06-17.28-9.06 S96.06,66.05,105.6,66.05L105.6,66.05L105.6,66.05z M122.15,81.15c0.47,0.82,0.73,1.7,0.73,2.6c0,5-7.74,9.06-17.28,9.06 c-9.54,0-17.28-4.06-17.28-9.06c0-0.91,0.25-1.78,0.73-2.6c2.13,3.73,8.73,6.46,16.55,6.46C113.42,87.61,120.02,84.88,122.15,81.15 L122.15,81.15L122.15,81.15L122.15,81.15z M122.07,99.28c0.53,0.87,0.81,1.79,0.81,2.75c0,5-7.74,9.06-17.28,9.06 c-9.54,0-17.28-4.06-17.28-9.06c0-0.96,0.29-1.88,0.81-2.75c2.22,3.66,8.75,6.31,16.47,6.31 C113.32,105.59,119.84,102.94,122.07,99.28L122.07,99.28L122.07,99.28L122.07,99.28z M60.04,83.04l4.5,15.63 c3.48-7.32,7.11-14.59,7.93-22.9c-1.38-1.62-2.84-3.76-4.11-5.62c-0.38-0.55-0.73-1.07-1.07-1.55c-2.79,2.04-6.13,3.32-10.41,3.3 c-4.61-0.01-8.15-1.65-11.09-4.14c-0.02,0.03-0.04,0.06-0.06,0.09c-0.48,0.66-1.01,1.44-1.59,2.29c-1.08,1.59-2.3,3.37-3.49,4.87 c1.54,9.63,5.24,16.41,8.59,23.64l4.5-15.63C48.08,73.64,65.2,73.1,60.04,83.04L60.04,83.04z M69.08,67.14 c0.36,0.51,0.76,1.1,1.19,1.72c0.79,1.16,1.66,2.44,2.53,3.6c1.68,1.45,4.25,2.58,7.22,3.53C78.08,80.39,77,85.24,77,90.35 c0,7.4,2.26,14.28,6.13,19.98H56.9H6.19c-3.88-0.29-5.85-2.3-6.19-5.78l1.34-6c0.38-4.92,1.76-8.79,4-11.76 c1.48-1.96,3.32-3.4,5.36-4.53c6.07-3.38,21.77-4.51,28.47-9.04c1.05-1.35,2.12-2.94,3.1-4.36c0.6-0.88,1.16-1.7,1.63-2.34 c0.08-0.11,0.17-0.2,0.29-0.28c-2.47-2.54-4.46-5.61-6.35-8.62l-5.1-8.12c-1.87-2.79-2.83-5.32-2.9-7.41 c-0.03-0.98,0.14-1.87,0.5-2.66c0.38-0.82,0.96-1.51,1.76-2.04c0.37-0.25,0.78-0.46,1.24-0.63c-0.33-4.4-0.45-9.95-0.24-14.59 c0.11-1.1,0.32-2.21,0.63-3.3c1.31-4.66,4.58-8.41,8.62-10.98c1.42-0.91,2.99-1.66,4.64-2.26C49.9,4.56,48.48,0.08,51.73,0 c7.62-0.17,20.1,6.27,24.97,11.54c2.83,3.07,4.61,7.12,4.99,12.5l-0.32,13.24l0,0c1.42,0.43,2.32,1.32,2.69,2.78 c0.41,1.61-0.04,3.88-1.4,6.97l0,0c-0.03,0.05-0.05,0.11-0.08,0.17l-5.82,9.58c-2.24,3.69-4.51,7.39-7.56,10.23L69.08,67.14 L69.08,67.14L69.08,67.14z"/></g></svg>