<svg width="28" height="28" viewBox="0 0 28 28" fill="none" xmlns="http://www.w3.org/2000/svg">
<g clip-path="url(#clip0_4_2428)">
<path d="M14 25.6667C15.2833 25.6667 16.3333 24.6167 16.3333 23.3334H11.6666C11.6666 24.6167 12.7166 25.6667 14 25.6667ZM21 18.6667V12.8334C21 9.25169 19.0983 6.25335 15.75 5.46002V4.66669C15.75 3.69835 14.9683 2.91669 14 2.91669C13.0316 2.91669 12.25 3.69835 12.25 4.66669V5.46002C8.91329 6.25335 6.99996 9.24002 6.99996 12.8334V18.6667L4.66663 21V22.1667H23.3333V21L21 18.6667ZM18.6666 19.8334H9.33329V12.8334C9.33329 9.94002 11.095 7.58335 14 7.58335C16.905 7.58335 18.6666 9.94002 18.6666 12.8334V19.8334Z" fill="black"/>
</g>
<defs>
<clipPath id="clip0_4_2428">
<rect width="28" height="28" fill="white"/>
</clipPath>
</defs>
</svg>
