<svg width="20" height="20" viewBox="0 0 20 20" fill="none" xmlns="http://www.w3.org/2000/svg">
<path d="M15.2999 4.69989C13.6749 3.06655 11.0416 3.06655 9.40822 4.69989L8.23322 5.87489L7.04989 4.69989L8.23322 3.51655C10.5082 1.24155 14.1999 1.24155 16.4832 3.51655C18.7582 5.79989 18.7582 9.49155 16.4832 11.7666L15.2999 12.9499L14.1249 11.7666L15.2999 10.5916C16.9332 8.95822 16.9332 6.32489 15.2999 4.69989ZM13.5332 7.64155L7.64155 13.5332L6.46655 12.3582L12.3582 6.46655L13.5332 7.64155ZM3.51655 8.23322L4.69989 7.04989L5.87489 8.23322L4.69989 9.40822C3.06655 11.0416 3.06655 13.6749 4.69989 15.2999C6.32489 16.9332 8.95822 16.9332 10.5916 15.2999L11.7666 14.1249L12.9499 15.2999L11.7666 16.4832C9.49155 18.7582 5.79989 18.7582 3.51655 16.4832C1.24155 14.1999 1.24155 10.5082 3.51655 8.23322Z" fill="#536471"/>
</svg>
