<svg width="24" height="24" viewBox="0 0 24 24" fill="none" xmlns="http://www.w3.org/2000/svg">
<path d="M0.269287 12.1289C0.269287 13.2773 1.19897 14.207 2.34741 14.207H9.9353V21.7949C9.9353 22.9297 10.8513 23.873 11.9998 23.873C13.1482 23.873 14.0779 22.9297 14.0779 21.7949V14.207H21.6658C22.8005 14.207 23.7302 13.2773 23.7302 12.1289C23.7302 10.9941 22.8005 10.0645 21.6658 10.0645H14.0779V2.47656C14.0779 1.3418 13.1482 0.398438 11.9998 0.398438C10.8513 0.398438 9.9353 1.3418 9.9353 2.47656V10.0645H2.34741C1.19897 10.0645 0.269287 10.9941 0.269287 12.1289Z" fill="#48319D"/>
</svg>
