<svg width="28" height="28" viewBox="0 0 28 28" fill="none" xmlns="http://www.w3.org/2000/svg">
<path d="M23.0794 20.8052L19.4443 17.1707C19.2802 17.0066 19.0578 16.9155 18.8244 16.9155H18.2301C19.2364 15.6286 19.8344 14.01 19.8344 12.2493C19.8344 8.06063 16.4399 4.66669 12.2505 4.66669C8.06115 4.66669 4.66663 8.06063 4.66663 12.2493C4.66663 16.4379 8.06115 19.8319 12.2505 19.8319C14.0116 19.8319 15.6304 19.234 16.9175 18.2279V18.8221C16.9175 19.0554 17.0087 19.2778 17.1727 19.4418L20.8079 23.0763C21.1506 23.419 21.7049 23.419 22.0439 23.0763L23.0758 22.0447C23.4185 21.702 23.4185 21.1479 23.0794 20.8052ZM12.2505 16.9155C9.67272 16.9155 7.58351 14.8303 7.58351 12.2493C7.58351 9.67193 9.66908 7.58307 12.2505 7.58307C14.8283 7.58307 16.9175 9.66828 16.9175 12.2493C16.9175 14.8266 14.832 16.9155 12.2505 16.9155Z" fill="black"/>
</svg>
