<svg width="25" height="24" viewBox="0 0 25 24" fill="none" xmlns="http://www.w3.org/2000/svg">
<path fill-rule="evenodd" clip-rule="evenodd" d="M11.7 4C7.83399 4 4.69998 7.13401 4.69998 11C4.69998 14.866 7.83399 18 11.7 18C15.566 18 18.7 14.866 18.7 11C18.7 7.13401 15.566 4 11.7 4ZM2.69998 11C2.69998 6.02944 6.72942 2 11.7 2C16.6705 2 20.7 6.02944 20.7 11C20.7 15.9706 16.6705 20 11.7 20C6.72942 20 2.69998 15.9706 2.69998 11Z" fill="#676D75"/>
<path fill-rule="evenodd" clip-rule="evenodd" d="M16.6429 15.9429C17.0334 15.5524 17.6666 15.5524 18.0571 15.9429L22.4071 20.2929C22.7976 20.6834 22.7976 21.3166 22.4071 21.7071C22.0166 22.0976 21.3834 22.0976 20.9929 21.7071L16.6429 17.3571C16.2523 16.9666 16.2523 16.3334 16.6429 15.9429Z" fill="#676D75"/>
</svg>
