<svg width="49" height="48" viewBox="0 0 49 48" fill="none" xmlns="http://www.w3.org/2000/svg">
<rect y="0.0644531" width="48.0318" height="47.1691" rx="10" fill="#BCE7FF"/>
<path fill-rule="evenodd" clip-rule="evenodd" d="M24.535 37.058C31.989 37.058 38.0318 31.0153 38.0318 23.5612C38.0318 16.1072 31.989 10.0645 24.535 10.0645C17.0809 10.0645 11.0382 16.1072 11.0382 23.5612C11.0382 25.868 11.6169 28.0396 12.637 29.9388C12.6326 32.3864 12.1116 36.0022 10 37.058C10 37.399 11.5117 37.4712 17.5138 35.0902C19.5594 36.3387 21.9632 37.058 24.535 37.058ZM24.535 33.023C19.3094 33.023 15.0732 28.7868 15.0732 23.5612C15.0732 18.3356 19.3094 14.0994 24.535 14.0994C29.7606 14.0994 33.9968 18.3356 33.9968 23.5612C33.9968 28.7868 29.7606 33.023 24.535 33.023Z" fill="#0779B8"/>
</svg>
